<?xml version="1.0" encoding="UTF-8"?><svg xmlns="http://www.w3.org/2000/svg" xmlns:xlink="http://www.w3.org/1999/xlink" width="1012.5pt" zoomAndPan="magnify" viewBox="0 0 1012.5 487.499991" height="487.499991pt" preserveAspectRatio="xMidYMid meet" version="1.2"><defs><clipPath xml:id="clip1" id="clip1"><path d="M 267.546875 119 L 719.902344 119 L 719.902344 408.207031 L 267.546875 408.207031 Z M 267.546875 119 "/></clipPath></defs><g xml:id="surface1" id="surface1"><path style=" stroke:none;fill-rule:nonzero;fill:rgb(82.348633%,67.059326%,30.198669%);fill-opacity:1;" d="M 409.078125 301.691406 C 406.753906 305.167969 341.796875 375.828125 341.796875 375.828125 C 341.796875 375.828125 303.558594 368.867188 295.429688 397.867188 C 295.429688 397.867188 330.179688 410.625 349.929688 403.667969 C 349.929688 403.667969 414.882812 382.59375 444.992188 353.789062 C 444.992188 353.789062 534.246094 375.921875 605.015625 343.445312 L 605.015625 370.027344 C 605.015625 370.027344 579.554688 371.1875 578.390625 390.90625 C 578.390625 390.90625 641.023438 407.144531 641.023438 367.707031 L 654.09375 320.925781 L 678.101562 273.945312 L 634.054688 236.929688 L 409.078125 301.691406 "/><path style=" stroke:none;fill-rule:nonzero;fill:rgb(58.428955%,27.839661%,11.369324%);fill-opacity:1;" d="M 569.257812 246.8125 C 562.621094 245.804688 556.230469 244.789062 550.480469 244.671875 C 556.238281 244.804688 562.632812 245.816406 569.257812 246.8125 "/><path style=" stroke:none;fill-rule:nonzero;fill:rgb(58.428955%,27.839661%,11.369324%);fill-opacity:1;" d="M 549.417969 244.660156 C 549.648438 244.660156 549.882812 244.664062 550.117188 244.667969 C 549.882812 244.664062 549.648438 244.660156 549.417969 244.660156 "/><path style=" stroke:none;fill-rule:nonzero;fill:rgb(58.428955%,27.839661%,11.369324%);fill-opacity:1;" d="M 625.828125 229.484375 C 612.378906 252.832031 589.6875 249.886719 569.257812 246.8125 C 562.621094 245.804688 556.230469 244.789062 550.480469 244.671875 C 550.359375 244.667969 550.238281 244.671875 550.117188 244.667969 C 549.882812 244.664062 549.648438 244.660156 549.417969 244.660156 C 547.367188 244.652344 545.402344 244.765625 543.542969 245.046875 C 520.402344 248.527344 528.535156 278.585938 467.066406 282.066406 C 466.25 282.113281 465.445312 282.132812 464.65625 282.140625 C 447.164062 282.289062 435.996094 272.941406 429.015625 259.757812 C 420.089844 267.246094 407.71875 272.449219 390.78125 273.945312 C 390.78125 273.945312 379.691406 277.351562 364.550781 279.804688 C 341.753906 283.5 309.777344 285.046875 292.617188 269.597656 C 293.101562 269.210938 293.394531 269.019531 293.394531 269.019531 C 306.558594 283.226562 335.695312 278.878906 335.695312 278.878906 C 380.226562 275.59375 361.546875 221.847656 361.546875 221.847656 C 356.125 210.539062 351.574219 198.070312 351.667969 196.523438 C 357.382812 159.601562 380.90625 138.335938 399.589844 127.023438 C 412.078125 129.054688 425.632812 134.757812 439.667969 146.550781 C 439.667969 146.550781 455 188.136719 448.414062 223.871094 C 466.117188 230.960938 491.007812 232.824219 526.117188 223.007812 L 626.988281 169.75 C 626.988281 169.75 630.46875 169.167969 636.183594 169.167969 C 640.054688 185.601562 638.3125 207.929688 625.828125 229.484375 Z M 336.277344 183.957031 C 336.277344 183.957031 344.316406 149.351562 371.515625 128.378906 C 347.796875 134.5625 332.40625 150.996094 332.40625 150.996094 C 322.535156 167.429688 304.332031 197.101562 304.332031 197.101562 C 301.914062 198.550781 299.589844 199.90625 297.457031 201.257812 C 306.078125 200.582031 325.730469 197.585938 336.277344 183.957031 Z M 685.457031 119.582031 C 691.457031 106.4375 695.234375 92.421875 694.363281 78.210938 C 694.363281 78.210938 705.980469 75.890625 703.65625 96.773438 C 703.558594 96.773438 705.207031 106.050781 700.851562 123.546875 L 685.457031 119.582031 "/><g clip-rule="nonzero" clip-path="url(#clip1)"><path style=" stroke:none;fill-rule:nonzero;fill:rgb(91.758728%,85.488892%,62.748718%);fill-opacity:1;" d="M 399.6875 127.121094 C 389.425781 125.382812 379.941406 126.253906 371.515625 128.472656 C 344.316406 149.453125 336.277344 184.050781 336.277344 184.050781 C 325.730469 197.683594 306.078125 200.679688 297.558594 201.355469 C 294.945312 201.550781 293.394531 201.550781 293.394531 201.550781 C 293.394531 201.550781 267.546875 205.316406 267.546875 247.078125 C 267.546875 284.386719 288.167969 272.496094 292.617188 269.597656 C 293.101562 269.210938 293.394531 269.019531 293.394531 269.019531 C 306.558594 283.226562 335.695312 278.878906 335.695312 278.878906 C 380.226562 275.59375 361.546875 221.847656 361.546875 221.847656 C 356.125 210.539062 351.574219 198.070312 351.667969 196.523438 C 357.382812 159.601562 380.90625 138.335938 399.6875 127.121094 Z M 719.730469 302.945312 C 719.730469 302.945312 719.730469 365.484375 693.105469 394.386719 C 693.105469 394.386719 651.382812 408.304688 647.894531 386.269531 C 647.894531 386.269531 639.765625 375.828125 663 370.027344 L 673.453125 333.007812 C 673.453125 333.007812 645.671875 323.726562 641.023438 297.144531 C 641.023438 297.144531 616.628906 333.007812 534.34375 339.964844 C 534.34375 339.964844 540.152344 363.070312 504.238281 378.144531 L 446.253906 408.207031 L 387.101562 408.207031 C 387.101562 408.207031 385.941406 382.6875 428.828125 383.851562 L 467.066406 347.988281 C 467.066406 347.988281 414.703125 355.980469 364.550781 279.804688 C 379.691406 277.351562 390.78125 273.945312 390.78125 273.945312 C 407.71875 272.449219 420.089844 267.246094 429.015625 259.757812 C 435.996094 272.941406 447.164062 282.289062 464.65625 282.140625 C 465.511719 282.136719 466.375 282.117188 467.257812 282.066406 C 528.632812 278.585938 520.5 248.527344 543.734375 245.046875 C 545.535156 244.773438 547.4375 244.660156 549.417969 244.660156 C 549.648438 244.660156 549.882812 244.664062 550.117188 244.667969 C 550.238281 244.671875 550.359375 244.671875 550.480469 244.671875 C 556.238281 244.804688 562.632812 245.816406 569.257812 246.8125 C 589.699219 249.914062 612.476562 252.949219 626.019531 229.484375 C 638.410156 207.832031 640.25 185.601562 636.378906 169.167969 C 639.957031 169.167969 644.414062 169.460938 649.445312 170.328125 C 660.964844 158.246094 676.066406 140.171875 685.457031 119.679688 L 700.851562 123.640625 C 697.363281 137.464844 690.105469 156.410156 675.292969 179.992188 C 699.011719 194.492188 722.148438 227.839844 719.730469 302.945312 "/></g><path style=" stroke:none;fill-rule:nonzero;fill:rgb(7.058716%,6.269836%,5.879211%);fill-opacity:1;" d="M 386.132812 192.851562 C 386.132812 192.851562 385.648438 149.453125 356.800781 192.851562 C 356.800781 192.851562 378.292969 169.460938 386.132812 192.851562 Z M 331.730469 186.277344 C 331.730469 186.277344 331.4375 157.570312 312.367188 186.277344 C 312.367188 186.277344 326.597656 170.8125 331.730469 186.277344 Z M 330.277344 263.992188 C 330.277344 263.992188 325.730469 271.820312 310.527344 272.496094 C 310.527344 272.496094 300.269531 272.980469 292.816406 269.984375 C 292.714844 269.984375 292.617188 269.984375 292.523438 269.984375 C 292.234375 269.984375 291.941406 269.886719 291.648438 269.695312 C 291.167969 269.402344 290.683594 269.019531 290.199219 268.628906 C 282.9375 262.253906 283.035156 248.429688 283.90625 240.503906 C 270.742188 243.597656 267.738281 230.449219 267.738281 230.449219 C 266.871094 216.722656 273.546875 215.664062 273.546875 215.664062 C 311.785156 215.664062 307.914062 233.253906 307.914062 233.253906 C 304.332031 247.847656 287.875 239.246094 287.875 239.246094 C 287.683594 239.34375 287.585938 239.34375 287.390625 239.441406 C 286.523438 246.304688 286.230469 260.996094 292.714844 266.3125 C 293.007812 266.503906 293.300781 266.796875 293.585938 266.894531 C 293.683594 266.894531 293.683594 266.988281 293.683594 266.988281 C 295.621094 268.148438 300.460938 270.371094 310.335938 269.886719 C 310.335938 269.886719 321.46875 269.308594 328.242188 261.671875 C 328.242188 261.671875 329.503906 260.414062 330.472656 261.671875 C 330.277344 261.769531 331.246094 262.929688 330.277344 263.992188 "/><path style=" stroke:none;fill-rule:nonzero;fill:rgb(37.249756%,17.248535%,9.01947%);fill-opacity:1;" d="M 292.296875 268.953125 C 288.988281 271.105469 276.765625 278.210938 270.691406 266.445312 C 270.371094 293.238281 280.421875 307.972656 280.421875 307.972656 C 287.972656 326.339844 317.015625 317.640625 317.015625 317.640625 C 335.230469 312.554688 339.949219 295.8125 340.457031 281.554688 C 322.585938 282.117188 304 279.488281 292.296875 268.953125 Z M 298.203125 200.710938 C 306.722656 200.035156 326.371094 197.039062 336.925781 183.410156 C 336.925781 183.410156 342.089844 161.207031 358.128906 141.585938 C 358.117188 141.570312 358.105469 141.550781 358.09375 141.535156 C 342.082031 161.140625 336.925781 183.3125 336.925781 183.3125 C 326.371094 196.941406 306.722656 199.9375 298.105469 200.617188 C 300.234375 199.261719 302.558594 197.910156 304.980469 196.460938 C 304.980469 196.460938 323.179688 166.785156 333.054688 150.355469 C 333.054688 150.355469 339.828125 143.128906 351.308594 136.457031 C 343.675781 134.105469 335.695312 140.074219 335.695312 140.074219 L 302.203125 181.25 C 297.320312 188.546875 293.164062 195.566406 289.628906 202.304688 C 292.257812 201.167969 294.039062 200.902344 294.039062 200.902344 C 294.039062 200.902344 295.589844 200.902344 298.203125 200.710938 Z M 469.96875 187.148438 C 515.078125 271.433594 478.199219 315.316406 478.199219 315.316406 C 468.804688 332.910156 440.828125 321.308594 440.828125 321.308594 C 408.398438 308.648438 425.4375 261.09375 425.4375 261.09375 C 436.472656 232.191406 407.816406 154.960938 417.695312 142.878906 C 427.566406 130.796875 440.828125 142.878906 440.828125 142.878906 L 469.96875 187.148438 "/></g></svg>